<svg width="20" height="20" viewBox="0 0 20 20" fill="none" xmlns="http://www.w3.org/2000/svg">
<path fill-rule="evenodd" clip-rule="evenodd" d="M0.625 1.875C0.625 1.52982 0.904822 1.25 1.25 1.25H2.67005C2.96157 1.25279 3.24295 1.35742 3.4655 1.54574C3.68769 1.73374 3.8373 1.99338 3.88855 2.27986L3.8888 2.28128L5.9747 13.75H14.375C14.7202 13.75 15 14.0298 15 14.375C15 14.7202 14.7202 15 14.375 15H5.45312C5.15108 15 4.89226 14.784 4.83821 14.4868L2.65808 2.5H1.25C0.904822 2.5 0.625 2.22018 0.625 1.875Z" fill="#6B6B6A"/>
<path fill-rule="evenodd" clip-rule="evenodd" d="M6.25 15C5.73223 15 5.3125 15.4197 5.3125 15.9375C5.3125 16.4553 5.73223 16.875 6.25 16.875C6.76777 16.875 7.1875 16.4553 7.1875 15.9375C7.1875 15.4197 6.76777 15 6.25 15ZM4.0625 15.9375C4.0625 14.7294 5.04188 13.75 6.25 13.75C7.45812 13.75 8.4375 14.7294 8.4375 15.9375C8.4375 17.1456 7.45812 18.125 6.25 18.125C5.04188 18.125 4.0625 17.1456 4.0625 15.9375Z" fill="#6B6B6A"/>
<path fill-rule="evenodd" clip-rule="evenodd" d="M14.375 15C13.8572 15 13.4375 15.4197 13.4375 15.9375C13.4375 16.4553 13.8572 16.875 14.375 16.875C14.8928 16.875 15.3125 16.4553 15.3125 15.9375C15.3125 15.4197 14.8928 15 14.375 15ZM12.1875 15.9375C12.1875 14.7294 13.1669 13.75 14.375 13.75C15.5831 13.75 16.5625 14.7294 16.5625 15.9375C16.5625 17.1456 15.5831 18.125 14.375 18.125C13.1669 18.125 12.1875 17.1456 12.1875 15.9375Z" fill="#6B6B6A"/>
<path fill-rule="evenodd" clip-rule="evenodd" d="M3.125 5C3.125 4.65482 3.40482 4.375 3.75 4.375H16.875C17.0604 4.375 17.2362 4.4573 17.3549 4.59966C17.4737 4.74202 17.5231 4.92975 17.4899 5.11213L16.5371 10.3366L16.5369 10.3378C16.4593 10.7697 16.2322 11.1604 15.8953 11.4415C15.5584 11.7226 15.1333 11.8761 14.6945 11.875L14.6934 11.875L14.6953 11.875H14.6945H4.88281C4.53763 11.875 4.25781 11.5952 4.25781 11.25C4.25781 10.9048 4.53763 10.625 4.88281 10.625H14.6953L14.6972 10.625C14.8424 10.6254 14.983 10.5747 15.0945 10.4817C15.206 10.3887 15.2811 10.2594 15.3066 10.1165L15.307 10.1144L16.1257 5.625H3.75C3.40482 5.625 3.125 5.34518 3.125 5Z" fill="#6B6B6A"/>
</svg>
