<svg width="18" height="18" viewBox="0 0 18 18" fill="none" xmlns="http://www.w3.org/2000/svg">
<path fill-rule="evenodd" clip-rule="evenodd" d="M9 2.8125C5.58274 2.8125 2.8125 5.58274 2.8125 9C2.8125 12.4173 5.58274 15.1875 9 15.1875C12.4173 15.1875 15.1875 12.4173 15.1875 9C15.1875 5.58274 12.4173 2.8125 9 2.8125ZM1.6875 9C1.6875 4.96142 4.96142 1.6875 9 1.6875C13.0386 1.6875 16.3125 4.96142 16.3125 9C16.3125 13.0386 13.0386 16.3125 9 16.3125C4.96142 16.3125 1.6875 13.0386 1.6875 9Z" fill="#6B6B6A"/>
<path fill-rule="evenodd" clip-rule="evenodd" d="M9 6.1875C7.75736 6.1875 6.75 7.19486 6.75 8.4375C6.75 9.68014 7.75736 10.6875 9 10.6875C10.2426 10.6875 11.25 9.68014 11.25 8.4375C11.25 7.19486 10.2426 6.1875 9 6.1875ZM5.625 8.4375C5.625 6.57354 7.13604 5.0625 9 5.0625C10.864 5.0625 12.375 6.57354 12.375 8.4375C12.375 10.3015 10.864 11.8125 9 11.8125C7.13604 11.8125 5.625 10.3015 5.625 8.4375Z" fill="#6B6B6A"/>
<path fill-rule="evenodd" clip-rule="evenodd" d="M9 11.8125C8.16899 11.8125 7.3542 12.0422 6.64596 12.4769C5.93772 12.9116 5.36369 13.534 4.9875 14.275C4.84687 14.552 4.5083 14.6625 4.2313 14.5219C3.95429 14.3812 3.84374 14.0427 3.98438 13.7657C4.45462 12.8394 5.17216 12.0615 6.05745 11.5181C6.94275 10.9747 7.96123 10.6875 9 10.6875C10.0388 10.6875 11.0572 10.9747 11.9425 11.5181C12.8278 12.0615 13.5454 12.8394 14.0156 13.7657C14.1563 14.0427 14.0457 14.3812 13.7687 14.5219C13.4917 14.6625 13.1531 14.552 13.0125 14.275C12.6363 13.534 12.0623 12.9116 11.354 12.4769C10.6458 12.0422 9.83101 11.8125 9 11.8125Z" fill="#6B6B6A"/>
</svg>
