<svg width="18" height="18" viewBox="0 0 18 18" fill="none" xmlns="http://www.w3.org/2000/svg">
<path fill-rule="evenodd" clip-rule="evenodd" d="M9 4.5C9.31066 4.5 9.5625 4.75184 9.5625 5.0625V6.1875C9.5625 6.49816 9.31066 6.75 9 6.75C8.68934 6.75 8.4375 6.49816 8.4375 6.1875V5.0625C8.4375 4.75184 8.68934 4.5 9 4.5Z" fill="#00478F"/>
<path fill-rule="evenodd" clip-rule="evenodd" d="M9 11.25C9.31066 11.25 9.5625 11.5018 9.5625 11.8125V12.9375C9.5625 13.2482 9.31066 13.5 9 13.5C8.68934 13.5 8.4375 13.2482 8.4375 12.9375V11.8125C8.4375 11.5018 8.68934 11.25 9 11.25Z" fill="#00478F"/>
<path fill-rule="evenodd" clip-rule="evenodd" d="M9 2.8125C5.58274 2.8125 2.8125 5.58274 2.8125 9C2.8125 12.4173 5.58274 15.1875 9 15.1875C12.4173 15.1875 15.1875 12.4173 15.1875 9C15.1875 5.58274 12.4173 2.8125 9 2.8125ZM1.6875 9C1.6875 4.96142 4.96142 1.6875 9 1.6875C13.0386 1.6875 16.3125 4.96142 16.3125 9C16.3125 13.0386 13.0386 16.3125 9 16.3125C4.96142 16.3125 1.6875 13.0386 1.6875 9Z" fill="#00478F"/>
<path fill-rule="evenodd" clip-rule="evenodd" d="M8.15625 6.75C7.93247 6.75 7.71786 6.83889 7.55963 6.99713C7.40139 7.15536 7.3125 7.36997 7.3125 7.59375C7.3125 7.81753 7.40139 8.03214 7.55963 8.19037C7.71786 8.34861 7.93247 8.4375 8.15625 8.4375H9.84375C10.3659 8.4375 10.8667 8.64492 11.2359 9.01413C11.6051 9.38335 11.8125 9.8841 11.8125 10.4062C11.8125 10.9284 11.6051 11.4292 11.2359 11.7984C10.8667 12.1676 10.3659 12.375 9.84375 12.375H7.3125C7.00184 12.375 6.75 12.1232 6.75 11.8125C6.75 11.5018 7.00184 11.25 7.3125 11.25H9.84375C10.0675 11.25 10.2821 11.1611 10.4404 11.0029C10.5986 10.8446 10.6875 10.63 10.6875 10.4062C10.6875 10.1825 10.5986 9.96786 10.4404 9.80963C10.2821 9.65139 10.0675 9.5625 9.84375 9.5625H8.15625C7.63411 9.5625 7.13335 9.35508 6.76413 8.98587C6.39492 8.61665 6.1875 8.11589 6.1875 7.59375C6.1875 7.07161 6.39492 6.57085 6.76413 6.20163C7.13335 5.83242 7.63411 5.625 8.15625 5.625H10.6875C10.9982 5.625 11.25 5.87684 11.25 6.1875C11.25 6.49816 10.9982 6.75 10.6875 6.75H8.15625Z" fill="#00478F"/>
</svg>
